<?xml version="1.0" encoding="UTF-8"?>
<svg version="1.1" xmlns="http://www.w3.org/2000/svg" width="600" height="199">
<path d="M0 0 C1.43179674 -0.00258684 2.86359277 -0.00560089 4.2953878 -0.0090034 C8.21628725 -0.01703861 12.13716836 -0.01886102 16.05807507 -0.01960087 C20.29196161 -0.02145741 24.52583877 -0.02900754 28.75971985 -0.03573608 C38.00955411 -0.0492932 47.25938402 -0.05533948 56.50922656 -0.05974674 C62.28641587 -0.0625125 68.06360352 -0.06675036 73.8407917 -0.07125092 C89.84231047 -0.08343808 105.84382791 -0.09373983 121.84535122 -0.09712601 C122.8685673 -0.09734557 123.89178338 -0.09756514 124.946006 -0.09779136 C125.97162902 -0.09800964 126.99725204 -0.09822791 128.05395454 -0.09845281 C130.13216619 -0.09889627 132.21037783 -0.09934283 134.28858948 -0.09979248 C135.319448 -0.10001391 136.35030652 -0.10023534 137.41240317 -0.10046348 C154.12503876 -0.10441359 170.83763081 -0.1218766 187.55024957 -0.145152 C204.71656641 -0.16886609 221.88286139 -0.18132781 239.04919487 -0.18249393 C248.68449755 -0.18341043 258.31974342 -0.18915697 267.95503044 -0.20731354 C276.15689946 -0.22271498 284.35869409 -0.22783456 292.56057482 -0.21957543 C296.74397693 -0.21566966 300.92722921 -0.21659511 305.11061287 -0.23063278 C308.94307803 -0.24337531 312.77528084 -0.24217123 316.60774565 -0.23004207 C318.64469367 -0.22716172 320.68164623 -0.2390179 322.71855825 -0.25146413 C332.07067335 -0.20101986 340.30659597 0.6341092 347.35475159 7.28887939 C352.92507687 13.85687488 355.39946696 21.56165653 354.92506409 30.14044189 C353.82786069 34.55419194 351.32785219 38.31782446 348.92506409 42.14044189 C348.59506409 42.80044189 348.26506409 43.46044189 347.92506409 44.14044189 C347.26506409 44.94481689 346.60506409 45.74919189 345.92506409 46.57794189 C343.77210958 49.04195566 343.77210958 49.04195566 342.92506409 52.14044189 C342.30631409 52.90356689 341.68756409 53.66669189 341.05006409 54.45294189 C338.85918073 57.22376496 337.41486862 59.94800362 335.92506409 63.14044189 C334.92506409 65.14044189 334.92506409 65.14044189 333.05006409 67.39044189 C330.88656269 70.19026724 329.41772872 72.94187482 327.92506409 76.14044189 C326.92506409 78.14044189 326.92506409 78.14044189 325.12428284 80.35137939 C322.74408078 83.36996601 320.74531595 86.48824843 318.73756409 89.76544189 C318.38242737 90.33778564 318.02729065 90.91012939 317.66139221 91.49981689 C316.10945551 94.03238912 314.8682378 96.31092076 313.92506409 99.14044189 C313.14275645 100.26620166 312.32713808 101.36921878 311.48756409 102.45294189 C309.72637639 104.83631555 308.84763096 106.38242043 307.92506409 109.26544189 C306.67001479 112.87370862 304.63834304 114.49334047 301.92506409 117.14044189 C300.0229956 120.1908341 300.0229956 120.1908341 298.92506409 123.14044189 C299.25506409 123.80044189 299.58506409 124.46044189 299.92506409 125.14044189 C299.32693909 125.32606689 298.72881409 125.51169189 298.11256409 125.70294189 C294.91418389 127.8047346 294.36599514 130.65819186 292.92506409 134.14044189 C291.6161895 135.49779332 290.28088552 136.82998251 288.92506409 138.14044189 C287.86234767 139.49923851 286.82106781 140.87502978 285.80006409 142.26544189 C274.78418845 156.58133201 274.78418845 156.58133201 266.92506409 159.14044189 C266.92506409 159.80044189 266.92506409 160.46044189 266.92506409 161.14044189 C249.80254218 169.57144853 234.93447141 173.29352355 215.76783752 173.28088379 C214.33930253 173.28347142 212.91076825 173.28648569 211.48223495 173.28988719 C207.57499641 173.29791296 203.66777628 173.29974427 199.76053047 173.30048466 C195.53961322 173.30234283 191.31870536 173.30989371 187.09779358 173.31661987 C177.87900928 173.33016971 168.66022936 173.33622197 159.44143677 173.34063053 C153.68317066 173.34339722 147.92490622 173.34763521 142.16664124 173.3521347 C126.21569423 173.36432032 110.26474856 173.37462277 94.313797 173.3780098 C92.78422698 173.37833915 92.78422698 173.37833915 91.22375655 173.37867515 C90.20165658 173.37889343 89.17955661 173.3791117 88.12648392 173.3793366 C86.05543772 173.37978006 83.98439153 173.38022662 81.91334534 173.38067627 C80.88604293 173.3808977 79.85874053 173.38111913 78.80030775 173.38134727 C62.14270115 173.38529799 45.48513822 173.40276355 28.8275485 173.42603579 C11.7154406 173.4497498 -5.39664538 173.46221158 -22.50876999 173.46337771 C-32.11275871 173.46429416 -41.71669044 173.47003932 -51.32066345 173.48819733 C-59.49505995 173.50359858 -67.66938181 173.50871842 -75.84379005 173.50045922 C-80.01302243 173.49655355 -84.18210449 173.49747848 -88.35131836 173.51151657 C-92.17079095 173.52425947 -95.99000031 173.5230547 -99.80947256 173.51092586 C-101.83941399 173.50804566 -103.86935998 173.51990133 -105.89926529 173.53234792 C-115.88437713 173.47830798 -124.53136919 172.13538559 -132.07493591 165.14044189 C-134.36993209 162.12071009 -135.878874 159.72862764 -137.07493591 156.14044189 C-137.73493591 155.48044189 -138.39493591 154.82044189 -139.07493591 154.14044189 C-138.74493591 153.81044189 -138.41493591 153.48044189 -138.07493591 153.14044189 C-138.08089114 151.80647097 -138.13055161 150.47262045 -138.19993591 149.14044189 C-138.27378593 144.00376306 -136.91276361 139.88260869 -135.07493591 135.14044189 C-134.74493591 134.15044189 -134.41493591 133.16044189 -134.07493591 132.14044189 C-133.41493591 132.14044189 -132.75493591 132.14044189 -132.07493591 132.14044189 C-131.99243591 131.39794189 -131.90993591 130.65544189 -131.82493591 129.89044189 C-130.92651539 126.5962333 -129.48968793 125.47973291 -127.07493591 123.14044189 C-126.90993591 122.48044189 -126.74493591 121.82044189 -126.57493591 121.14044189 C-125.87685622 118.34812311 -124.08304882 117.1485548 -122.07493591 115.14044189 C-121.43241241 113.07170155 -121.43241241 113.07170155 -121.07493591 111.14044189 C-120.08493591 110.15044189 -120.08493591 110.15044189 -119.07493591 109.14044189 C-118.42481573 107.84020153 -117.79826485 106.52781311 -117.19993591 105.20294189 C-116.05528021 103.10440645 -114.75025918 101.81576516 -113.07493591 100.14044189 C-113.07493591 99.48044189 -113.07493591 98.82044189 -113.07493591 98.14044189 C-112.08493591 97.15044189 -112.08493591 97.15044189 -111.07493591 96.14044189 C-110.74493591 95.48044189 -110.41493591 94.82044189 -110.07493591 94.14044189 C-109.41493591 93.15044189 -108.75493591 92.16044189 -108.07493591 91.14044189 C-107.40398613 89.79854233 -106.75826005 88.443755 -106.13743591 87.07794189 C-105.07493591 85.14044189 -105.07493591 85.14044189 -103.07493591 84.14044189 C-103.07493591 83.15044189 -103.07493591 82.16044189 -103.07493591 81.14044189 C-101.40826925 79.47377523 -99.74160258 77.80710856 -98.07493591 76.14044189 C-97.71331563 74.81450085 -97.37765553 73.48105732 -97.07493591 72.14044189 C-95.74160258 70.80710856 -94.40826925 69.47377523 -93.07493591 68.14044189 C-92.43241241 66.07170155 -92.43241241 66.07170155 -92.07493591 64.14044189 C-91.41493591 63.48044189 -90.75493591 62.82044189 -90.07493591 62.14044189 C-89.57993591 61.15044189 -89.57993591 61.15044189 -89.07493591 60.14044189 C-88.41493591 59.15044189 -87.75493591 58.16044189 -87.07493591 57.14044189 C-86.4123835 55.81533708 -85.76623989 54.48189038 -85.13743591 53.14044189 C-84.07493591 51.14044189 -84.07493591 51.14044189 -82.07493591 49.14044189 C-81.57993591 48.15044189 -81.57993591 48.15044189 -81.07493591 47.14044189 C-79.74160258 45.14044189 -78.40826925 43.14044189 -77.07493591 41.14044189 C-76.57993591 40.15044189 -76.57993591 40.15044189 -76.07493591 39.14044189 C-73.11656342 34.42895978 -69.82347424 30.24877297 -66.07493591 26.14044189 C-65.41493591 25.41469971 -64.75493591 24.68895752 -64.07493591 23.94122314 C-58.64495971 18.23005175 -52.9149769 14.0281575 -46.07493591 10.14044189 C-45.27313904 9.67766846 -44.47134216 9.21489502 -43.64524841 8.73809814 C-29.77177897 1.255522 -15.42817596 -0.01118243 0 0 Z " fill="#000000" transform="translate(227.07493591308594,9.85955810546875)"/>
<path d="M0 0 C50.98245614 0 50.98245614 0 63.23046875 11.00390625 C69.43189104 17.50783694 74.42825704 25.85211261 75 35 C75.05027344 35.78632812 75.10054688 36.57265625 75.15234375 37.3828125 C75.59389776 49.78164907 72.38226006 60.92104099 63.99609375 70.22265625 C46.17147718 87.28199411 24.1600284 82 0 82 C0 54.94 0 27.88 0 0 Z " fill="#F8F8F8" transform="translate(173,59)"/>
<path d="M0 0 C7.92 0 15.84 0 24 0 C26.54536873 5.72707965 28.93891866 11.31121495 31.0234375 17.19140625 C31.29209625 17.93978256 31.560755 18.68815887 31.83755493 19.45921326 C32.68657599 21.82584215 33.53105272 24.19405761 34.375 26.5625 C35.48530438 29.66857002 36.59769507 32.77388817 37.7109375 35.87890625 C37.9829599 36.63888916 38.2549823 37.39887207 38.5352478 38.18188477 C40.6491636 44.07022961 42.82954464 49.93189531 45.06088257 55.77674866 C46.67466578 60.02869673 48.0375545 64.30311137 49.27734375 68.67578125 C50.38128753 72.22630314 51.80162835 75.636119 53.23046875 79.06640625 C54 81 54 81 54 82 C46.74 82 39.48 82 32 82 C28 70.25 28 70.25 28 68 C17.77 68 7.54 68 -3 68 C-3.99 70.97 -4.98 73.94 -6 77 C-6.66 78.65 -7.32 80.3 -8 82 C-14.93 82 -21.86 82 -29 82 C-26.23411348 72.7810476 -23.18832134 63.71284459 -19.90234375 54.66796875 C-19.42174739 53.33817086 -18.94141127 52.0082789 -18.46131897 50.67829895 C-17.21090634 47.21666312 -15.9567633 43.75639059 -14.70184326 40.29638672 C-13.68089123 37.47949503 -12.66261686 34.66163905 -11.64447689 31.84372997 C-9.53131617 25.99531593 -7.4160566 20.14766025 -5.29663086 14.30151367 C-4.92452988 13.27483078 -4.55242889 12.24814789 -4.16905212 11.19035339 C-2.79948814 7.45280139 -1.39767422 3.72713124 0 0 Z " fill="#FAFAFA" transform="translate(418,59)"/>
<path d="M0 0 C7.92 0 15.84 0 24 0 C27.62213998 8.23213631 30.59274443 16.52069448 33.32446289 25.0847168 C34.79955002 29.645061 36.41366171 34.0780059 38.29296875 38.48828125 C41.46584721 45.96300099 44.19127203 53.5900411 46.93139648 61.23120117 C47.82505087 63.72248873 48.72372638 66.21192475 49.62304688 68.70117188 C50.19299794 70.2837499 50.76267019 71.86642837 51.33203125 73.44921875 C51.60070511 74.19386887 51.86937897 74.93851898 52.14619446 75.70573425 C54 80.88402418 54 80.88402418 54 82 C46.74 82 39.48 82 32 82 C28 71.375 28 71.375 28 68 C17.44 68 6.88 68 -4 68 C-4.66 70.97 -5.32 73.94 -6 77 C-6.66 78.65 -7.32 80.3 -8 82 C-14.93 82 -21.86 82 -29 82 C-27.31149908 75.15219072 -25.18057363 68.78263908 -22.48071289 62.26904297 C-19.82080677 55.75329131 -17.62679967 49.09821677 -15.44824219 42.40869141 C-14.01204844 38.00352405 -12.52873186 33.63547676 -10.87719727 29.30639648 C-9.73954156 26.31518206 -8.63023475 23.31382439 -7.51953125 20.3125 C-7.07802734 19.12011719 -6.63652344 17.92773438 -6.18164062 16.69921875 C-5.72982422 15.47847656 -5.27800781 14.25773437 -4.8125 13 C-4.34441631 11.73567143 -3.87631747 10.47134847 -3.40820312 9.20703125 C-2.27198681 6.13807585 -1.13597307 3.06904545 0 0 Z " fill="#FAFAFA" transform="translate(276,59)"/>
<path d="M0 0 C5.6357339 4.91265861 10.04912829 9.64671432 12 17 C12.03144094 18.66637008 12.03665216 20.3337364 12 22 C8.45919329 22.20439826 4.91990993 22.32797882 1.375 22.4375 C-0.12353516 22.52547852 -0.12353516 22.52547852 -1.65234375 22.61523438 C-9.01234429 22.78583041 -9.01234429 22.78583041 -11.90917969 20.48095703 C-13.4609375 18.59765625 -13.4609375 18.59765625 -14.69677734 16.71118164 C-16.26386953 14.65352913 -17.60526879 13.93134889 -20 13 C-22.66709069 12.83249586 -22.66709069 12.83249586 -25 13 C-25 12.34 -25 11.68 -25 11 C-35.12381106 12.89091085 -35.12381106 12.89091085 -43 19 C-47.21708991 26.45019218 -46.27232979 34.68889832 -46 43 C-45.34 43.33 -44.68 43.66 -44 44 C-43.87625 44.5775 -43.7525 45.155 -43.625 45.75 C-42.60693826 49.41502226 -40.42877423 52.14758905 -37.16015625 54.09765625 C-31.7605969 56.35316838 -25.98334334 56.6762507 -20.5 54.625 C-18.65746846 53.76953893 -16.81697245 52.90848623 -15 52 C-14.34444881 49.47266765 -14.34444881 49.47266765 -14 47 C-10.94080612 45.98026871 -8.87581975 45.88466398 -5.67578125 45.90234375 C-4.64775391 45.90556641 -3.61972656 45.90878906 -2.56054688 45.91210938 C-0.95276367 45.92467773 -0.95276367 45.92467773 0.6875 45.9375 C2.31268555 45.94426758 2.31268555 45.94426758 3.97070312 45.95117188 C6.64719085 45.96296257 9.32356777 45.97941937 12 46 C13 48 13 48 12.609375 49.9609375 C9.10365217 59.80883163 1.93890975 68.54974729 -7.5625 73.125 C-20.61786862 78.12058202 -33.60659725 78.62458746 -46.5546875 72.86328125 C-57.64865942 66.94276088 -64.28776243 58.77436852 -68.24609375 46.8828125 C-71.42109493 34.74213442 -70.25308056 21.96851836 -64 11 C-57.67215721 1.0405257 -50.21199505 -4.29221244 -39 -8 C-25.03156646 -10.8437656 -11.53266601 -8.57966503 0 0 Z " fill="#000000" transform="translate(83,66)"/>
<path d="M0 0 C21.12 0 42.24 0 64 0 C64 5.28 64 10.56 64 16 C56.74 16 49.48 16 42 16 C42 37.78 42 59.56 42 82 C35.4 82 28.8 82 22 82 C22 60.22 22 38.44 22 16 C14.74 16 7.48 16 0 16 C0 10.72 0 5.44 0 0 Z " fill="#FBFBFB" transform="translate(327,59)"/>
<path d="M0 0 C20.25742574 0 20.25742574 0 26.87109375 5.578125 C32.67782959 11.76083654 33.49013204 18.70191645 33.3046875 26.93359375 C32.73299273 32.68718852 31.24526372 37.60571436 27.234375 41.8828125 C18.78587038 48.76801115 10.91894215 48 0 48 C0 32.16 0 16.32 0 0 Z " fill="#020202" transform="translate(194,76)"/>
<path d="M0 0 C0.66 0 1.32 0 2 0 C3.31458266 4.08266582 4.62630532 8.16624495 5.9375 12.25 C6.31068359 13.40886719 6.68386719 14.56773438 7.06835938 15.76171875 C7.60493164 17.43427734 7.60493164 17.43427734 8.15234375 19.140625 C8.48226318 20.16704102 8.81218262 21.19345703 9.15209961 22.25097656 C9.83956417 24.47984238 10.43429116 26.73716464 11 29 C4.4 29 -2.2 29 -9 29 C-6.47168425 19.16766097 -3.26541049 9.60601339 0 0 Z " fill="#0E0E0E" transform="translate(287,82)"/>
<path d="M0 0 C2.37615727 2.37615727 2.88770565 4.16098724 3.9453125 7.33984375 C4.29980469 8.40267578 4.65429688 9.46550781 5.01953125 10.56054688 C5.38433594 11.67494141 5.74914062 12.78933594 6.125 13.9375 C6.68380859 15.60329102 6.68380859 15.60329102 7.25390625 17.30273438 C10 25.60639881 10 25.60639881 10 29 C3.73 29 -2.54 29 -9 29 C-8.34502955 24.41520688 -7.82786295 20.98117407 -6.40625 16.7578125 C-6.09816406 15.83742188 -5.79007812 14.91703125 -5.47265625 13.96875 C-4.99119141 12.56109375 -4.99119141 12.56109375 -4.5 11.125 C-4.01853516 9.68253906 -4.01853516 9.68253906 -3.52734375 8.2109375 C-1.14060834 1.14060834 -1.14060834 1.14060834 0 0 Z " fill="#0E0E0E" transform="translate(430,82)"/>
<path d="M0 0 C0.33 0.66 0.66 1.32 1 2 C0.34 1.67 -0.32 1.34 -1 1 C-0.67 0.67 -0.34 0.34 0 0 Z " fill="#1E1E1E" transform="translate(508,163)"/>
<path d="M0 0 C3 1 3 1 3 1 Z " fill="#010101" transform="translate(61,143)"/>
<path d="" fill="#090909" transform="translate(0,0)"/>
<path d="" fill="#000000" transform="translate(0,0)"/>
<path d="" fill="#020202" transform="translate(0,0)"/>
<path d="" fill="#010101" transform="translate(0,0)"/>
<path d="M0 0 C2 1 2 1 2 1 Z " fill="#060606" transform="translate(573,13)"/>
<path d="" fill="#050505" transform="translate(0,0)"/>
<path d="" fill="#020202" transform="translate(0,0)"/>
<path d="" fill="#030303" transform="translate(0,0)"/>
<path d="" fill="#151515" transform="translate(0,0)"/>
<path d="" fill="#151515" transform="translate(0,0)"/>
<path d="" fill="#040404" transform="translate(0,0)"/>
<path d="" fill="#070707" transform="translate(0,0)"/>
<path d="" fill="#070707" transform="translate(0,0)"/>
<path d="" fill="#090909" transform="translate(0,0)"/>
<path d="" fill="#070707" transform="translate(0,0)"/>
<path d="" fill="#010101" transform="translate(0,0)"/>
<path d="" fill="#060606" transform="translate(0,0)"/>
<path d="" fill="#050505" transform="translate(0,0)"/>
<path d="" fill="#060606" transform="translate(0,0)"/>
<path d="" fill="#050505" transform="translate(0,0)"/>
<path d="" fill="#030303" transform="translate(0,0)"/>
<path d="" fill="#020202" transform="translate(0,0)"/>
<path d="" fill="#030303" transform="translate(0,0)"/>
<path d="" fill="#050505" transform="translate(0,0)"/>
<path d="" fill="#030303" transform="translate(0,0)"/>
<path d="" fill="#030303" transform="translate(0,0)"/>
<path d="" fill="#080808" transform="translate(0,0)"/>
<path d="" fill="#020202" transform="translate(0,0)"/>
<path d="" fill="#020202" transform="translate(0,0)"/>
<path d="" fill="#020202" transform="translate(0,0)"/>
<path d="" fill="#030303" transform="translate(0,0)"/>
<path d="" fill="#030303" transform="translate(0,0)"/>
<path d="" fill="#010101" transform="translate(0,0)"/>
<path d="" fill="#010101" transform="translate(0,0)"/>
<path d="" fill="#020202" transform="translate(0,0)"/>
<path d="" fill="#010101" transform="translate(0,0)"/>
<path d="" fill="#010101" transform="translate(0,0)"/>
<path d="" fill="#020202" transform="translate(0,0)"/>
<path d="" fill="#030303" transform="translate(0,0)"/>
<path d="" fill="#010101" transform="translate(0,0)"/>
<path d="" fill="#020202" transform="translate(0,0)"/>
<path d="" fill="#030303" transform="translate(0,0)"/>
<path d="" fill="#010101" transform="translate(0,0)"/>
<path d="" fill="#010101" transform="translate(0,0)"/>
<path d="" fill="#060606" transform="translate(0,0)"/>
<path d="" fill="#030303" transform="translate(0,0)"/>
<path d="" fill="#070707" transform="translate(0,0)"/>
<path d="" fill="#040404" transform="translate(0,0)"/>
<path d="" fill="#010101" transform="translate(0,0)"/>
<path d="" fill="#010101" transform="translate(0,0)"/>
<path d="" fill="#030303" transform="translate(0,0)"/>
<path d="" fill="#010101" transform="translate(0,0)"/>
<path d="" fill="#010101" transform="translate(0,0)"/>
<path d="" fill="#050505" transform="translate(0,0)"/>
<path d="" fill="#010101" transform="translate(0,0)"/>
<path d="" fill="#020202" transform="translate(0,0)"/>
<path d="" fill="#020202" transform="translate(0,0)"/>
<path d="" fill="#010101" transform="translate(0,0)"/>
<path d="" fill="#050505" transform="translate(0,0)"/>
<path d="" fill="#010101" transform="translate(0,0)"/>
<path d="" fill="#050505" transform="translate(0,0)"/>
<path d="" fill="#070707" transform="translate(0,0)"/>
<path d="" fill="#010101" transform="translate(0,0)"/>
<path d="" fill="#010101" transform="translate(0,0)"/>
<path d="" fill="#010101" transform="translate(0,0)"/>
<path d="" fill="#050505" transform="translate(0,0)"/>
<path d="" fill="#010101" transform="translate(0,0)"/>
<path d="" fill="#020202" transform="translate(0,0)"/>
<path d="" fill="#171717" transform="translate(0,0)"/>
<path d="" fill="#020202" transform="translate(0,0)"/>
<path d="" fill="#060606" transform="translate(0,0)"/>
<path d="" fill="#050505" transform="translate(0,0)"/>
<path d="" fill="#030303" transform="translate(0,0)"/>
<path d="" fill="#0C0C0C" transform="translate(0,0)"/>
<path d="" fill="#050505" transform="translate(0,0)"/>
<path d="" fill="#101010" transform="translate(0,0)"/>
<path d="" fill="#030303" transform="translate(0,0)"/>
<path d="" fill="#020202" transform="translate(0,0)"/>
<path d="" fill="#111111" transform="translate(0,0)"/>
<path d="" fill="#040404" transform="translate(0,0)"/>
<path d="" fill="#0E0E0E" transform="translate(0,0)"/>
<path d="" fill="#010101" transform="translate(0,0)"/>
<path d="" fill="#020202" transform="translate(0,0)"/>
<path d="" fill="#101010" transform="translate(0,0)"/>
<path d="" fill="#010101" transform="translate(0,0)"/>
<path d="" fill="#010101" transform="translate(0,0)"/>
<path d="" fill="#010101" transform="translate(0,0)"/>
<path d="" fill="#2D2D2D" transform="translate(0,0)"/>
<path d="" fill="#2D2D2D" transform="translate(0,0)"/>
<path d="" fill="#010101" transform="translate(0,0)"/>
<path d="" fill="#010101" transform="translate(0,0)"/>
<path d="" fill="#000000" transform="translate(0,0)"/>
<path d="" fill="#181818" transform="translate(0,0)"/>
<path d="" fill="#010101" transform="translate(0,0)"/>
<path d="" fill="#111111" transform="translate(0,0)"/>
<path d="" fill="#000000" transform="translate(0,0)"/>
<path d="" fill="#050505" transform="translate(0,0)"/>
<path d="" fill="#020202" transform="translate(0,0)"/>
<path d="" fill="#010101" transform="translate(0,0)"/>
<path d="" fill="#060606" transform="translate(0,0)"/>
<path d="" fill="#050505" transform="translate(0,0)"/>
<path d="" fill="#020202" transform="translate(0,0)"/>
<path d="" fill="#010101" transform="translate(0,0)"/>
<path d="" fill="#020202" transform="translate(0,0)"/>
<path d="" fill="#020202" transform="translate(0,0)"/>
<path d="" fill="#010101" transform="translate(0,0)"/>
<path d="" fill="#333333" transform="translate(0,0)"/>
<path d="" fill="#030303" transform="translate(0,0)"/>
<path d="" fill="#030303" transform="translate(0,0)"/>
<path d="" fill="#050505" transform="translate(0,0)"/>
<path d="" fill="#010101" transform="translate(0,0)"/>
<path d="" fill="#060606" transform="translate(0,0)"/>
<path d="" fill="#0D0D0D" transform="translate(0,0)"/>
<path d="" fill="#0F0F0F" transform="translate(0,0)"/>
<path d="" fill="#101010" transform="translate(0,0)"/>
<path d="" fill="#030303" transform="translate(0,0)"/>
<path d="" fill="#020202" transform="translate(0,0)"/>
<path d="" fill="#313131" transform="translate(0,0)"/>
<path d="" fill="#060606" transform="translate(0,0)"/>
<path d="" fill="#0C0C0C" transform="translate(0,0)"/>
<path d="" fill="#010101" transform="translate(0,0)"/>
<path d="" fill="#090909" transform="translate(0,0)"/>
<path d="" fill="#2F2F2F" transform="translate(0,0)"/>
<path d="" fill="#090909" transform="translate(0,0)"/>
<path d="" fill="#080808" transform="translate(0,0)"/>
<path d="" fill="#303030" transform="translate(0,0)"/>
<path d="" fill="#020202" transform="translate(0,0)"/>
<path d="" fill="#2B2B2B" transform="translate(0,0)"/>
<path d="" fill="#000000" transform="translate(0,0)"/>
<path d="" fill="#121212" transform="translate(0,0)"/>
<path d="" fill="#202020" transform="translate(0,0)"/>
<path d="" fill="#181818" transform="translate(0,0)"/>
<path d="" fill="#212121" transform="translate(0,0)"/>
<path d="" fill="#0B0B0B" transform="translate(0,0)"/>
<path d="" fill="#010101" transform="translate(0,0)"/>
<path d="" fill="#171717" transform="translate(0,0)"/>
<path d="" fill="#0F0F0F" transform="translate(0,0)"/>
<path d="" fill="#141414" transform="translate(0,0)"/>
<path d="" fill="#020202" transform="translate(0,0)"/>
<path d="" fill="#131313" transform="translate(0,0)"/>
<path d="" fill="#151515" transform="translate(0,0)"/>
<path d="" fill="#0A0A0A" transform="translate(0,0)"/>
<path d="" fill="#191919" transform="translate(0,0)"/>
<path d="" fill="#171717" transform="translate(0,0)"/>
<path d="" fill="#131313" transform="translate(0,0)"/>
<path d="" fill="#0E0E0E" transform="translate(0,0)"/>
<path d="" fill="#111111" transform="translate(0,0)"/>
</svg>
