<?xml version="1.0" encoding="UTF-8"?>
<svg version="1.1" xmlns="http://www.w3.org/2000/svg" width="600" height="199">
<path d="M0 0 C1.43697667 -0.0037468 2.87395131 -0.00835237 4.3109228 -0.01373065 C8.2182864 -0.02584732 12.12556366 -0.02571378 16.0329417 -0.02334189 C20.26264095 -0.02293087 24.49231355 -0.03399937 28.72200012 -0.04345703 C36.99024383 -0.06000171 45.258459 -0.06556346 53.52671788 -0.06668179 C60.24732538 -0.06763464 66.96792352 -0.07175668 73.68852806 -0.07808304 C92.76235012 -0.09567157 111.83614975 -0.10492475 130.90997998 -0.10342209 C132.44929094 -0.10330222 132.44929094 -0.10330222 134.0196991 -0.10317993 C135.56089736 -0.10305729 135.56089736 -0.10305729 137.13323095 -0.10293217 C153.80670453 -0.10211822 170.48008802 -0.12128961 187.15353552 -0.14945666 C204.29292671 -0.17818174 221.43227391 -0.19199741 238.57168978 -0.19026911 C248.18679696 -0.18960546 257.80180946 -0.19508808 267.41689491 -0.21662521 C275.59668098 -0.23483121 283.77632935 -0.2391885 291.95612691 -0.22560637 C296.12745949 -0.219076 300.29852782 -0.21896232 304.46983528 -0.23631287 C308.29103272 -0.25204383 312.11175635 -0.24918016 315.93294223 -0.2317446 C317.96364355 -0.22722515 319.99435958 -0.24233102 322.02500373 -0.25822389 C331.03681603 -0.19017353 336.96306931 1.49481206 344.45353699 6.39242554 C351.02340396 13.26092282 352.77127934 19.79643795 352.57463074 29.18930054 C351.97115541 34.19496958 350.94706233 37.84942414 347.20353699 41.26742554 C346.87353699 42.25742554 346.54353699 43.24742554 346.20353699 44.26742554 C345.21045878 45.60592225 344.20996647 46.93893862 343.20353699 48.26742554 C342.52085561 49.59263056 341.85283288 50.92554735 341.20353699 52.26742554 C340.54353699 53.25742554 339.88353699 54.24742554 339.20353699 55.26742554 C338.54353699 55.26742554 337.88353699 55.26742554 337.20353699 55.26742554 C335.78190509 58.58456664 334.81344589 61.70962358 334.20353699 65.26742554 C333.54353699 65.26742554 332.88353699 65.26742554 332.20353699 65.26742554 C331.22394119 67.05885761 330.24487369 68.85057858 329.26603699 70.64242554 C328.44812683 72.1390271 328.44812683 72.1390271 327.61369324 73.66586304 C326.78856109 75.188129 325.97789307 76.71871337 325.20353699 78.26742554 C324.54353699 79.03055054 323.88353699 79.79367554 323.20353699 80.57992554 C321.17710537 83.30294302 320.58303448 84.94682245 320.20353699 88.26742554 C319.54353699 88.26742554 318.88353699 88.26742554 318.20353699 88.26742554 C318.12103699 88.84492554 318.03853699 89.42242554 317.95353699 90.01742554 C316.99315471 92.89857238 315.34199226 94.12897026 313.20353699 96.26742554 C312.14107171 98.23495382 311.13215891 100.23330132 310.20353699 102.26742554 C309.13806746 104.3983646 307.9119398 105.63330111 306.20353699 107.26742554 C306.53353699 107.92742554 306.86353699 108.58742554 307.20353699 109.26742554 C306.54353699 109.59742554 305.88353699 109.92742554 305.20353699 110.26742554 C304.87353699 110.92742554 304.54353699 111.58742554 304.20353699 112.26742554 C303.58478699 113.03055054 302.96603699 113.79367554 302.32853699 114.57992554 C298.37671444 119.39429833 298.37671444 119.39429833 297.20353699 125.26742554 C295.53687032 126.9340922 293.87020365 128.60075887 292.20353699 130.26742554 C291.56101349 132.33616588 291.56101349 132.33616588 291.20353699 134.26742554 C289.89103699 135.70492554 289.89103699 135.70492554 288.20353699 137.26742554 C285.40440488 140.53606766 285.40440488 140.53606766 283.32853699 144.26742554 C281.96099497 146.69861134 280.12721895 148.1384799 277.93400574 149.82601929 C276.0399716 151.3512312 276.0399716 151.3512312 273.89884949 153.65023804 C257.48036707 169.59282242 235.61546666 173.59211425 213.56529236 173.52812195 C212.13330393 173.53114982 210.70131713 173.53504246 209.26933312 173.53971452 C205.37110725 173.54992055 201.47297411 173.54783182 197.57474089 173.54353392 C193.35661568 173.5410533 189.13851205 173.55009709 184.9203949 173.55757141 C176.67273174 173.57028121 168.42510119 173.57211695 160.17742988 173.56977115 C153.47348463 173.5679845 146.76954924 173.56974504 140.06560516 173.57399559 C139.10969005 173.57459078 138.15377494 173.57518597 137.1688927 173.57579919 C135.22672222 173.57701099 133.28455174 173.57822512 131.34238127 173.57944157 C113.15620747 173.59030171 94.97005224 173.58816121 76.7838774 173.58205672 C60.15238804 173.57688279 43.52095716 173.58815828 26.88947937 173.60715494 C9.79532123 173.62652998 -7.29880924 173.63479032 -24.39297843 173.63103169 C-33.98348909 173.62911993 -43.57394991 173.63160531 -53.1644516 173.64574623 C-61.32411754 173.65765633 -69.4837029 173.65906867 -77.64336994 173.64695606 C-81.80452519 173.64106624 -85.96553303 173.63997101 -90.12667847 173.65195847 C-93.93859633 173.6628123 -97.7502436 173.65972004 -101.56214878 173.64569678 C-103.58791821 173.64179791 -105.61369963 173.65260061 -107.63944077 173.66399366 C-116.77040232 173.60984209 -124.79915844 172.53663509 -132.22224426 166.86117554 C-135.84905823 163.18936388 -138.79646301 158.47681914 -138.79646301 153.26742554 C-139.45646301 152.93742554 -140.11646301 152.60742554 -140.79646301 152.26742554 C-140.51207349 150.37048693 -140.21862509 148.47490527 -139.92146301 146.57992554 C-139.75904114 145.52418335 -139.59661926 144.46844116 -139.42927551 143.38070679 C-138.83491309 140.45659045 -137.97750827 137.99684902 -136.79646301 135.26742554 C-136.46646301 134.27742554 -136.13646301 133.28742554 -135.79646301 132.26742554 C-134.80646301 131.27742554 -134.80646301 131.27742554 -133.79646301 130.26742554 C-133.79646301 129.60742554 -133.79646301 128.94742554 -133.79646301 128.26742554 C-132.58990051 127.09180054 -132.58990051 127.09180054 -131.35896301 125.89242554 C-128.77302032 123.24341107 -128.55172815 122.61217112 -127.79646301 119.26742554 C-126.46312968 117.9340922 -125.12979635 116.60075887 -123.79646301 115.26742554 C-123.15393951 113.1986852 -123.15393951 113.1986852 -122.79646301 111.26742554 C-121.80646301 110.27742554 -121.80646301 110.27742554 -120.79646301 109.26742554 C-120.79646301 108.60742554 -120.79646301 107.94742554 -120.79646301 107.26742554 C-119.80646301 106.27742554 -119.80646301 106.27742554 -118.79646301 105.26742554 C-116.3719171 102.38827727 -114.33786729 99.70594276 -112.79646301 96.26742554 C-111.79646301 94.26742554 -111.79646301 94.26742554 -109.79646301 91.32992554 C-107.70105866 88.40448135 -107.70105866 88.40448135 -106.79646301 85.26742554 C-106.13646301 84.60742554 -105.47646301 83.94742554 -104.79646301 83.26742554 C-104.46646301 82.60742554 -104.13646301 81.94742554 -103.79646301 81.26742554 C-102.50354236 79.47005388 -101.18109175 77.69673082 -99.85505676 75.92367554 C-98.61694766 74.31416872 -98.61694766 74.31416872 -98.79646301 72.26742554 C-98.19833801 71.68992554 -97.60021301 71.11242554 -96.98396301 70.51742554 C-94.50766292 67.97037401 -93.26463572 65.48342289 -91.79646301 62.26742554 C-90.79646301 60.26742554 -90.79646301 60.26742554 -88.79646301 57.26742554 C-88.1339106 55.94232072 -87.48776699 54.60887402 -86.85896301 53.26742554 C-85.79646301 51.26742554 -85.79646301 51.26742554 -83.79646301 49.26742554 C-83.30146301 48.27742554 -83.30146301 48.27742554 -82.79646301 47.26742554 C-81.46312968 45.26742554 -80.12979635 43.26742554 -78.79646301 41.26742554 C-78.30146301 40.27742554 -78.30146301 40.27742554 -77.79646301 39.26742554 C-77.15708801 38.31867554 -76.51771301 37.36992554 -75.85896301 36.39242554 C-73.85393064 33.53101651 -73.85393064 33.53101651 -72.89021301 31.27523804 C-71.62592161 28.95436025 -70.26109503 27.70465461 -68.23396301 26.01742554 C-66.00576828 24.14526192 -63.80928905 22.2795139 -61.69099426 20.28305054 C-44.19036297 3.83436976 -23.26116959 -0.05528113 0 0 Z " fill="#FEFEFE" transform="translate(228.7964630126953,9.732574462890625)"/>
<path d="M0 0 C50.98245614 0 50.98245614 0 63.23046875 11.00390625 C69.43189104 17.50783694 74.42825704 25.85211261 75 35 C75.05027344 35.78632812 75.10054688 36.57265625 75.15234375 37.3828125 C75.59389776 49.78164907 72.38226006 60.92104099 63.99609375 70.22265625 C46.17147718 87.28199411 24.1600284 82 0 82 C0 54.94 0 27.88 0 0 Z " fill="#050505" transform="translate(173,59)"/>
<path d="M0 0 C7.92 0 15.84 0 24 0 C27.62213998 8.23213631 30.59274443 16.52069448 33.32446289 25.0847168 C34.79955002 29.645061 36.41366171 34.0780059 38.29296875 38.48828125 C41.46584721 45.96300099 44.19127203 53.5900411 46.93139648 61.23120117 C47.82505087 63.72248873 48.72372638 66.21192475 49.62304688 68.70117188 C50.19299794 70.2837499 50.76267019 71.86642837 51.33203125 73.44921875 C51.60070511 74.19386887 51.86937897 74.93851898 52.14619446 75.70573425 C54 80.88402418 54 80.88402418 54 82 C46.74 82 39.48 82 32 82 C28 71.375 28 71.375 28 68 C17.44 68 6.88 68 -4 68 C-4.66 70.97 -5.32 73.94 -6 77 C-6.66 78.65 -7.32 80.3 -8 82 C-14.93 82 -21.86 82 -29 82 C-26.49700895 72.01485357 -23.03309652 62.46657407 -19.5 52.8125 C-18.91236792 51.19610618 -18.32512577 49.57957054 -17.73828125 47.96289062 C-15.42535054 41.59992966 -13.09799898 35.24334647 -10.71554565 28.90605164 C-9.64140692 26.04478922 -8.58055681 23.17864696 -7.51953125 20.3125 C-7.07802734 19.12011719 -6.63652344 17.92773438 -6.18164062 16.69921875 C-5.72982422 15.47847656 -5.27800781 14.25773437 -4.8125 13 C-4.34441631 11.73567143 -3.87631747 10.47134847 -3.40820312 9.20703125 C-2.27198681 6.13807585 -1.13597307 3.06904545 0 0 Z " fill="#040404" transform="translate(276,59)"/>
<path d="M0 0 C7.92 0 15.84 0 24 0 C26.54536873 5.72707965 28.93891866 11.31121495 31.0234375 17.19140625 C31.29209625 17.93978256 31.560755 18.68815887 31.83755493 19.45921326 C32.68657599 21.82584215 33.53105272 24.19405761 34.375 26.5625 C35.48530437 29.66857002 36.59767942 32.77389378 37.7109375 35.87890625 C37.98459137 36.64333038 38.25824524 37.40775452 38.54019165 38.19534302 C40.37045488 43.29302969 42.25524891 48.36781794 44.171875 53.43359375 C46.55596544 59.74226458 48.77925639 66.09000141 50.875 72.5 C51.90625 75.635 52.9375 78.77 54 82 C46.74 82 39.48 82 32 82 C28 70.25 28 70.25 28 68 C17.77 68 7.54 68 -3 68 C-3.99 70.97 -4.98 73.94 -6 77 C-6.66 78.65 -7.32 80.3 -8 82 C-14.93 82 -21.86 82 -29 82 C-25.390625 70.01171875 -25.390625 70.01171875 -23.23242188 64.11523438 C-21.68895614 59.88774736 -20.15009614 55.65868416 -18.61816406 51.42700195 C-18.1980304 50.26662918 -17.77789673 49.10625641 -17.34503174 47.91072083 C-16.90632751 46.69881577 -16.46762329 45.48691071 -16.015625 44.23828125 C-15.55052349 42.9536261 -15.08541513 41.66897344 -14.62030029 40.38432312 C-13.41031206 37.04227111 -12.20041545 33.70018594 -10.99053955 30.35809326 C-9.75026004 26.93206773 -8.50989163 23.50607438 -7.26953125 20.08007812 C-4.84626837 13.38674981 -2.42311077 6.69338338 0 0 Z " fill="#040404" transform="translate(418,59)"/>
<path d="M0 0 C0.99 0.66 1.98 1.32 3 2 C7.16171689 7.5891209 10.62593344 13.12966718 12 20 C10.35110234 21.64889766 8.42654616 21.12998381 6.16015625 21.1328125 C5.17982422 21.13410156 4.19949219 21.13539062 3.18945312 21.13671875 C1.64161133 21.13091797 1.64161133 21.13091797 0.0625 21.125 C-1.47954102 21.13080078 -1.47954102 21.13080078 -3.05273438 21.13671875 C-4.03435547 21.13542969 -5.01597656 21.13414063 -6.02734375 21.1328125 C-6.93218506 21.13168457 -7.83702637 21.13055664 -8.76928711 21.12939453 C-11 21 -11 21 -13 20 C-13.433125 19.21625 -13.86625 18.4325 -14.3125 17.625 C-16.70581474 13.90206595 -18.90094663 12.47789306 -23.23046875 11.4921875 C-29.32986574 10.60328313 -34.52842049 11.01550209 -40 14 C-44.83571157 18.01010228 -46.71839837 23.20690475 -47.3359375 29.33203125 C-47.43441574 38.10644236 -46.80886063 44.75584101 -40.8125 51.4375 C-34.35769808 55.02350107 -28.39270186 55.54771132 -21.234375 53.8359375 C-16.73181498 52.1514133 -14.5740762 48.8611143 -12 45 C-9.66162109 44.65942383 -9.66162109 44.65942383 -6.7734375 44.70703125 C-5.2265625 44.7215332 -5.2265625 44.7215332 -3.6484375 44.73632812 C-2.56820312 44.76146484 -1.48796875 44.78660156 -0.375 44.8125 C0.71296875 44.82603516 1.8009375 44.83957031 2.921875 44.85351562 C5.61507409 44.88895246 8.30729374 44.93835669 11 45 C12 47 12 47 11.44140625 49.1640625 C11.00634766 50.38222656 11.00634766 50.38222656 10.5625 51.625 C10.13130859 52.85089844 10.13130859 52.85089844 9.69140625 54.1015625 C9.46324219 54.72804688 9.23507813 55.35453125 9 56 C8.34 56 7.68 56 7 56 C6.79375 56.680625 6.5875 57.36125 6.375 58.0625 C2.90364519 65.47857619 -2.59044221 69.73979457 -10 73 C-11.32138987 73.37791229 -12.65625334 73.71149733 -14 74 C-15.11955078 74.26490234 -15.11955078 74.26490234 -16.26171875 74.53515625 C-29.12378211 77.33125698 -40.67302045 76.0935319 -52.09375 69.12109375 C-54.09687791 67.85660191 -54.09687791 67.85660191 -56.9375 67 C-59.82562087 65.59969897 -59.96338353 63.97163388 -61 61 C-61.928125 59.8553125 -61.928125 59.8553125 -62.875 58.6875 C-70.38609289 49.18817663 -71.77725347 38.07140795 -70.53125 26.234375 C-68.94502271 16.57705003 -65.70055931 9.1567676 -59 2 C-58.47664063 1.43539062 -57.95328125 0.87078125 -57.4140625 0.2890625 C-52.45583987 -4.47566852 -46.40776242 -6.74885189 -40 -9 C-38.87078125 -9.40798828 -38.87078125 -9.40798828 -37.71875 -9.82421875 C-24.97038653 -13.5583476 -9.84025699 -8.21931615 0 0 Z " fill="#FEFEFE" transform="translate(84,67)"/>
<path d="M0 0 C21.12 0 42.24 0 64 0 C64 5.28 64 10.56 64 16 C56.74 16 49.48 16 42 16 C42 37.78 42 59.56 42 82 C35.4 82 28.8 82 22 82 C22 60.22 22 38.44 22 16 C14.74 16 7.48 16 0 16 C0 10.72 0 5.44 0 0 Z " fill="#030303" transform="translate(327,59)"/>
<path d="M0 0 C20.25742574 0 20.25742574 0 26.87109375 5.578125 C32.67782959 11.76083654 33.49013204 18.70191645 33.3046875 26.93359375 C32.73299273 32.68718852 31.24526372 37.60571436 27.234375 41.8828125 C18.78587038 48.76801115 10.91894215 48 0 48 C0 32.16 0 16.32 0 0 Z " fill="#FCFCFC" transform="translate(194,76)"/>
<path d="M0 0 C0.66 0 1.32 0 2 0 C3.31458266 4.08266582 4.62630532 8.16624495 5.9375 12.25 C6.31068359 13.40886719 6.68386719 14.56773438 7.06835938 15.76171875 C7.60493164 17.43427734 7.60493164 17.43427734 8.15234375 19.140625 C8.48226318 20.16704102 8.81218262 21.19345703 9.15209961 22.25097656 C9.83956417 24.47984238 10.43429116 26.73716464 11 29 C4.4 29 -2.2 29 -9 29 C-6.47168425 19.16766097 -3.26541049 9.60601339 0 0 Z " fill="#EFEFEF" transform="translate(287,82)"/>
<path d="M0 0 C2.37615727 2.37615727 2.88770565 4.16098724 3.9453125 7.33984375 C4.29980469 8.40267578 4.65429688 9.46550781 5.01953125 10.56054688 C5.38433594 11.67494141 5.74914062 12.78933594 6.125 13.9375 C6.68380859 15.60329102 6.68380859 15.60329102 7.25390625 17.30273438 C10 25.60639881 10 25.60639881 10 29 C3.73 29 -2.54 29 -9 29 C-8.34502955 24.41520688 -7.82786295 20.98117407 -6.40625 16.7578125 C-6.09816406 15.83742188 -5.79007812 14.91703125 -5.47265625 13.96875 C-4.99119141 12.56109375 -4.99119141 12.56109375 -4.5 11.125 C-4.01853516 9.68253906 -4.01853516 9.68253906 -3.52734375 8.2109375 C-1.14060834 1.14060834 -1.14060834 1.14060834 0 0 Z " fill="#F0F0F0" transform="translate(430,82)"/>
<path d="" fill="#FBFBFB" transform="translate(0,0)"/>
<path d="M0 0 C2 1 2 1 2 1 Z " fill="#FBFBFB" transform="translate(48,143)"/>
<path d="M0 0 C2 1 2 1 2 1 Z " fill="#FCFCFC" transform="translate(77,138)"/>
<path d="M0 0 C2 1 2 1 2 1 Z " fill="#FBFBFB" transform="translate(96,135)"/>
<path d="M0 0 C2 1 2 1 2 1 Z " fill="#FCFCFC" transform="translate(546,100)"/>
<path d="" fill="#EDEDED" transform="translate(0,0)"/>
<path d="M0 0 C2 1 2 1 2 1 Z " fill="#F4F4F4" transform="translate(38,95)"/>
<path d="M0 0 C2 1 2 1 2 1 Z " fill="#FBFBFB" transform="translate(556,84)"/>
<path d="" fill="#FDFDFD" transform="translate(0,0)"/>
<path d="" fill="#FCFCFC" transform="translate(0,0)"/>
<path d="M0 0 C2 1 2 1 2 1 Z " fill="#DFDFDF" transform="translate(146,54)"/>
<path d="" fill="#FDFDFD" transform="translate(0,0)"/>
<path d="" fill="#FCFCFC" transform="translate(0,0)"/>
<path d="" fill="#FCFCFC" transform="translate(0,0)"/>
<path d="" fill="#F1F1F1" transform="translate(0,0)"/>
<path d="" fill="#D5D5D5" transform="translate(0,0)"/>
<path d="" fill="#E0E0E0" transform="translate(0,0)"/>
<path d="" fill="#F7F7F7" transform="translate(0,0)"/>
<path d="" fill="#FDFDFD" transform="translate(0,0)"/>
<path d="" fill="#E7E7E7" transform="translate(0,0)"/>
<path d="" fill="#F7F7F7" transform="translate(0,0)"/>
<path d="" fill="#F7F7F7" transform="translate(0,0)"/>
<path d="" fill="#D8D8D8" transform="translate(0,0)"/>
<path d="" fill="#F8F8F8" transform="translate(0,0)"/>
<path d="" fill="#F9F9F9" transform="translate(0,0)"/>
<path d="" fill="#F8F8F8" transform="translate(0,0)"/>
<path d="" fill="#FDFDFD" transform="translate(0,0)"/>
<path d="" fill="#CDCDCD" transform="translate(0,0)"/>
<path d="" fill="#F8F8F8" transform="translate(0,0)"/>
<path d="" fill="#F9F9F9" transform="translate(0,0)"/>
<path d="" fill="#F7F7F7" transform="translate(0,0)"/>
<path d="" fill="#FBFBFB" transform="translate(0,0)"/>
<path d="" fill="#FCFCFC" transform="translate(0,0)"/>
<path d="" fill="#E6E6E6" transform="translate(0,0)"/>
<path d="" fill="#F3F3F3" transform="translate(0,0)"/>
<path d="" fill="#FBFBFB" transform="translate(0,0)"/>
<path d="" fill="#FCFCFC" transform="translate(0,0)"/>
<path d="" fill="#FCFCFC" transform="translate(0,0)"/>
<path d="" fill="#FAFAFA" transform="translate(0,0)"/>
<path d="" fill="#FAFAFA" transform="translate(0,0)"/>
<path d="" fill="#FBFBFB" transform="translate(0,0)"/>
<path d="" fill="#FDFDFD" transform="translate(0,0)"/>
<path d="" fill="#FDFDFD" transform="translate(0,0)"/>
<path d="" fill="#EFEFEF" transform="translate(0,0)"/>
<path d="" fill="#F0F0F0" transform="translate(0,0)"/>
<path d="" fill="#F0F0F0" transform="translate(0,0)"/>
<path d="" fill="#FDFDFD" transform="translate(0,0)"/>
<path d="" fill="#F1F1F1" transform="translate(0,0)"/>
<path d="" fill="#FDFDFD" transform="translate(0,0)"/>
<path d="" fill="#FDFDFD" transform="translate(0,0)"/>
<path d="" fill="#FDFDFD" transform="translate(0,0)"/>
<path d="" fill="#FAFAFA" transform="translate(0,0)"/>
<path d="" fill="#FDFDFD" transform="translate(0,0)"/>
<path d="" fill="#F8F8F8" transform="translate(0,0)"/>
<path d="" fill="#F8F8F8" transform="translate(0,0)"/>
<path d="" fill="#FCFCFC" transform="translate(0,0)"/>
<path d="" fill="#FCFCFC" transform="translate(0,0)"/>
<path d="" fill="#FEFEFE" transform="translate(0,0)"/>
<path d="" fill="#FBFBFB" transform="translate(0,0)"/>
<path d="" fill="#EEEEEE" transform="translate(0,0)"/>
<path d="" fill="#F1F1F1" transform="translate(0,0)"/>
<path d="" fill="#FDFDFD" transform="translate(0,0)"/>
<path d="" fill="#FDFDFD" transform="translate(0,0)"/>
<path d="" fill="#FCFCFC" transform="translate(0,0)"/>
<path d="" fill="#EEEEEE" transform="translate(0,0)"/>
<path d="" fill="#E7E7E7" transform="translate(0,0)"/>
<path d="" fill="#F8F8F8" transform="translate(0,0)"/>
<path d="" fill="#F1F1F1" transform="translate(0,0)"/>
<path d="" fill="#FBFBFB" transform="translate(0,0)"/>
<path d="" fill="#F7F7F7" transform="translate(0,0)"/>
<path d="" fill="#FDFDFD" transform="translate(0,0)"/>
<path d="" fill="#FBFBFB" transform="translate(0,0)"/>
<path d="" fill="#FDFDFD" transform="translate(0,0)"/>
<path d="" fill="#F8F8F8" transform="translate(0,0)"/>
<path d="" fill="#E7E7E7" transform="translate(0,0)"/>
<path d="" fill="#FDFDFD" transform="translate(0,0)"/>
<path d="" fill="#F9F9F9" transform="translate(0,0)"/>
<path d="" fill="#FBFBFB" transform="translate(0,0)"/>
<path d="" fill="#E7E7E7" transform="translate(0,0)"/>
<path d="" fill="#E4E4E4" transform="translate(0,0)"/>
<path d="" fill="#D4D4D4" transform="translate(0,0)"/>
<path d="" fill="#FAFAFA" transform="translate(0,0)"/>
<path d="" fill="#FCFCFC" transform="translate(0,0)"/>
<path d="" fill="#F5F5F5" transform="translate(0,0)"/>
<path d="" fill="#FDFDFD" transform="translate(0,0)"/>
<path d="" fill="#FCFCFC" transform="translate(0,0)"/>
<path d="" fill="#EEEEEE" transform="translate(0,0)"/>
<path d="" fill="#FDFDFD" transform="translate(0,0)"/>
<path d="" fill="#E4E4E4" transform="translate(0,0)"/>
<path d="" fill="#FDFDFD" transform="translate(0,0)"/>
<path d="" fill="#F2F2F2" transform="translate(0,0)"/>
<path d="" fill="#EDEDED" transform="translate(0,0)"/>
<path d="" fill="#FBFBFB" transform="translate(0,0)"/>
<path d="" fill="#FCFCFC" transform="translate(0,0)"/>
<path d="" fill="#FDFDFD" transform="translate(0,0)"/>
<path d="" fill="#F6F6F6" transform="translate(0,0)"/>
<path d="" fill="#FDFDFD" transform="translate(0,0)"/>
<path d="" fill="#FBFBFB" transform="translate(0,0)"/>
<path d="" fill="#FDFDFD" transform="translate(0,0)"/>
<path d="" fill="#FDFDFD" transform="translate(0,0)"/>
<path d="" fill="#FDFDFD" transform="translate(0,0)"/>
<path d="" fill="#EEEEEE" transform="translate(0,0)"/>
<path d="" fill="#E5E5E5" transform="translate(0,0)"/>
<path d="" fill="#FDFDFD" transform="translate(0,0)"/>
<path d="" fill="#E8E8E8" transform="translate(0,0)"/>
<path d="" fill="#FCFCFC" transform="translate(0,0)"/>
<path d="" fill="#FDFDFD" transform="translate(0,0)"/>
<path d="" fill="#FCFCFC" transform="translate(0,0)"/>
<path d="" fill="#C4C4C4" transform="translate(0,0)"/>
<path d="" fill="#FEFEFE" transform="translate(0,0)"/>
<path d="" fill="#FDFDFD" transform="translate(0,0)"/>
<path d="" fill="#ECECEC" transform="translate(0,0)"/>
<path d="" fill="#FEFEFE" transform="translate(0,0)"/>
<path d="" fill="#EEEEEE" transform="translate(0,0)"/>
<path d="" fill="#FCFCFC" transform="translate(0,0)"/>
<path d="" fill="#FAFAFA" transform="translate(0,0)"/>
<path d="" fill="#FDFDFD" transform="translate(0,0)"/>
<path d="" fill="#EEEEEE" transform="translate(0,0)"/>
<path d="" fill="#FCFCFC" transform="translate(0,0)"/>
<path d="" fill="#FAFAFA" transform="translate(0,0)"/>
<path d="" fill="#FDFDFD" transform="translate(0,0)"/>
<path d="" fill="#FAFAFA" transform="translate(0,0)"/>
<path d="" fill="#FBFBFB" transform="translate(0,0)"/>
<path d="" fill="#F6F6F6" transform="translate(0,0)"/>
<path d="" fill="#B5B5B5" transform="translate(0,0)"/>
<path d="" fill="#FAFAFA" transform="translate(0,0)"/>
<path d="" fill="#FAFAFA" transform="translate(0,0)"/>
<path d="" fill="#F0F0F0" transform="translate(0,0)"/>
<path d="" fill="#F5F5F5" transform="translate(0,0)"/>
<path d="" fill="#FAFAFA" transform="translate(0,0)"/>
<path d="" fill="#FBFBFB" transform="translate(0,0)"/>
<path d="" fill="#B5B5B5" transform="translate(0,0)"/>
<path d="" fill="#FCFCFC" transform="translate(0,0)"/>
<path d="" fill="#ECECEC" transform="translate(0,0)"/>
<path d="" fill="#B7B7B7" transform="translate(0,0)"/>
<path d="" fill="#FDFDFD" transform="translate(0,0)"/>
<path d="" fill="#F2F2F2" transform="translate(0,0)"/>
<path d="" fill="#FDFDFD" transform="translate(0,0)"/>
<path d="" fill="#F5F5F5" transform="translate(0,0)"/>
<path d="" fill="#EEEEEE" transform="translate(0,0)"/>
<path d="" fill="#F6F6F6" transform="translate(0,0)"/>
<path d="" fill="#FCFCFC" transform="translate(0,0)"/>
<path d="" fill="#C9C9C9" transform="translate(0,0)"/>
<path d="" fill="#F1F1F1" transform="translate(0,0)"/>
<path d="" fill="#FCFCFC" transform="translate(0,0)"/>
<path d="" fill="#BEBEBE" transform="translate(0,0)"/>
<path d="" fill="#FEFEFE" transform="translate(0,0)"/>
<path d="" fill="#FCFCFC" transform="translate(0,0)"/>
<path d="" fill="#EDEDED" transform="translate(0,0)"/>
<path d="" fill="#F3F3F3" transform="translate(0,0)"/>
<path d="" fill="#FDFDFD" transform="translate(0,0)"/>
<path d="" fill="#F3F3F3" transform="translate(0,0)"/>
<path d="" fill="#FDFDFD" transform="translate(0,0)"/>
<path d="" fill="#E3E3E3" transform="translate(0,0)"/>
<path d="" fill="#F1F1F1" transform="translate(0,0)"/>
<path d="" fill="#F0F0F0" transform="translate(0,0)"/>
<path d="" fill="#E1E1E1" transform="translate(0,0)"/>
<path d="" fill="#E5E5E5" transform="translate(0,0)"/>
<path d="" fill="#E2E2E2" transform="translate(0,0)"/>
<path d="" fill="#F7F7F7" transform="translate(0,0)"/>
<path d="" fill="#E8E8E8" transform="translate(0,0)"/>
<path d="" fill="#EAEAEA" transform="translate(0,0)"/>
</svg>
